<?xml version="1.0" standalone="no"?><!DOCTYPE svg PUBLIC "-//W3C//DTD SVG 1.1//EN" "http://www.w3.org/Graphics/SVG/1.1/DTD/svg11.dtd"><svg height="1024" node-id="1" sillyvg="true" template-height="1024" template-width="1024" version="1.1" viewBox="0 0 1024 1024" width="1024" xmlns="http://www.w3.org/2000/svg" xmlns:xlink="http://www.w3.org/1999/xlink"><defs node-id="37"><linearGradient gradientUnits="objectBoundingBox" id="linearGradient1" node-id="39" spreadMethod="pad" x1="0.5669464" x2="0.5245008" y1="0.4735522" y2="0.53567755"><stop offset="0" stop-color="#6d6d6d"></stop><stop offset="0.35843056" stop-color="#555258"></stop><stop offset="0.5550486" stop-color="#302838"></stop><stop offset="1" stop-color="#241e2b"></stop></linearGradient><linearGradient gradientUnits="objectBoundingBox" id="linearGradient-2" node-id="9" spreadMethod="pad" x1="0.4330536" x2="0.4754992" y1="0.4735522" y2="0.53567755"><stop offset="0" stop-color="#6d6d6d"></stop><stop offset="0.35843056" stop-color="#555258"></stop><stop offset="0.5550486" stop-color="#302838"></stop><stop offset="1" stop-color="#241e2b"></stop></linearGradient><radialGradient cx="0.5" cy="0.27637437" fx="0.5" fy="0.27637437" gradientUnits="objectBoundingBox" id="radialGradient-1" node-id="5" r="0.72362566" rev="2" spreadMethod="pad"><stop offset="0" stop-color="#fff5aa"></stop><stop offset="0.27121985" stop-color="#ffeb96"></stop><stop offset="1" stop-color="#ffa60f"></stop></radialGradient><radialGradient cx="0.4614605" cy="-0.1742908" fx="0.4614605" fy="-0.1742908" gradientUnits="objectBoundingBox" id="radialGradient-3" node-id="14" r="1.0624638" rev="1" spreadMethod="pad"><stop offset="0" stop-color="#ffc858"></stop><stop offset="0.58872133" stop-color="#ffce5d"></stop><stop offset="1" stop-color="#ffbf40"></stop></radialGradient></defs><path d="M 901.43 512.18 C 901.43 615.41 860.42 714.42 787.42 787.42 C 714.42 860.42 615.41 901.43 512.18 901.43 C 408.94 901.43 309.93 860.42 236.93 787.42 C 163.93 714.42 122.92 615.41 122.92 512.18 C 122.92 408.94 163.93 309.93 236.93 236.93 C 309.93 163.93 408.94 122.92 512.18 122.92 C 615.41 122.92 714.42 163.93 787.42 236.93 C 860.42 309.93 901.43 408.94 901.43 512.18 Z" fill="url(#radialGradient-1)" fill-rule="evenodd" id="椭圆形" node-id="19" stroke="none" target-height="778.5077" target-width="778.5077" target-x="122.92224" target-y="122.92224"></path><g node-id="75"><g node-id="78"><g node-id="80"><path d="M 435.61 297.31 C 470.77 339.20 457.11 408.54 405.10 452.18 C 353.09 495.82 282.44 497.23 247.29 455.34 C 212.13 413.44 225.80 344.11 277.80 300.47 C 329.81 256.83 400.46 255.42 435.61 297.31 Z" fill="#ffffff" fill-rule="evenodd" group-id="1,4,6" id="椭圆形" node-id="22" stroke="none" target-height="241.81216" target-width="258.63287" target-x="212.13428" target-y="255.4183"></path></g><g node-id="81"><path d="M 411.65 321.88 C 438.32 353.66 431.83 403.00 397.16 432.10 C 362.49 461.19 312.77 459.01 286.10 427.23 C 259.43 395.44 265.92 346.10 300.59 317.01 C 335.26 287.91 384.99 290.09 411.65 321.88 Z" fill="#302838" fill-rule="evenodd" group-id="1,4,7" id="椭圆形" node-id="23" stroke="none" target-height="173.27277" target-width="178.88678" target-x="259.43347" target-y="287.91406"></path></g><path d="M 369.33 321.88 C 377.11 331.14 375.21 345.54 365.10 354.02 C 354.99 362.51 340.49 361.87 332.71 352.60 C 324.93 343.33 326.82 328.94 336.94 320.45 C 347.05 311.97 361.55 312.61 369.33 321.88 Z" fill="#ffffff" fill-rule="evenodd" group-id="1,4,8" id="椭圆形备份-2" node-id="24" stroke="none" target-height="50.537903" target-width="52.175293" target-x="324.93176" target-y="311.96985"></path></g><g node-id="79"><g node-id="83"><path d="M 588.74 297.31 C 553.59 339.20 567.25 408.54 619.25 452.18 C 671.26 495.82 741.91 497.23 777.07 455.34 C 812.22 413.44 798.56 344.11 746.55 300.47 C 694.55 256.83 623.89 255.42 588.74 297.31 Z" fill="#ffffff" fill-rule="evenodd" group-id="1,5,9" id="椭圆形" node-id="26" stroke="none" target-height="241.81216" target-width="258.63287" target-x="553.585" target-y="255.4183"></path></g><g node-id="84"><path d="M 612.70 321.88 C 586.03 353.66 592.52 403.00 627.19 432.10 C 661.86 461.19 711.58 459.01 738.25 427.23 C 764.92 395.44 758.43 346.10 723.76 317.01 C 689.09 287.91 639.37 290.09 612.70 321.88 Z" fill="#302838" fill-rule="evenodd" group-id="1,5,10" id="椭圆形" node-id="27" stroke="none" target-height="173.2727" target-width="178.88672" target-x="586.032" target-y="287.91412"></path></g><path d="M 653.67 321.88 C 645.90 331.14 647.79 345.54 657.90 354.02 C 668.01 362.51 682.51 361.87 690.29 352.60 C 698.07 343.33 696.18 328.94 686.07 320.45 C 675.95 311.97 661.45 312.61 653.67 321.88 Z" fill="#ffffff" fill-rule="evenodd" group-id="1,5,11" id="椭圆形" node-id="28" stroke="none" target-height="50.537903" target-width="52.175293" target-x="645.8955" target-y="311.96985"></path></g></g><path d="M 573.64 519.01 C 581.18 519.01 587.30 525.12 587.30 532.66 C 587.30 540.21 581.18 546.32 573.64 546.32 L 450.71 546.32 C 443.17 546.32 437.06 540.21 437.06 532.66 C 437.06 525.12 443.17 519.01 450.71 519.01 L 573.64 519.01 Z" fill="#672900" fill-rule="nonzero" id="路径-45" node-id="29" stroke="none" target-height="27.31604" target-width="150.23831" target-x="437.05698" target-y="519.0051"></path><path d="M 273.63 249.13 C 275.50 242.18 282.41 237.93 289.37 239.26 L 290.37 239.49 L 435.39 278.46 C 442.68 280.41 447.00 287.91 445.04 295.19 C 443.17 302.14 436.26 306.39 429.30 305.06 L 428.30 304.84 L 283.28 265.87 C 275.99 263.91 271.67 256.42 273.63 249.13 Z" fill="url(#linearGradient1)" fill-rule="nonzero" id="路径-10" node-id="30" stroke="none" target-height="68.46661" target-width="175.32169" target-x="271.67444" target-y="237.9281"></path><g node-id="76"><path d="M 745.52 249.13 C 743.65 242.18 736.74 237.93 729.77 239.26 L 728.78 239.49 L 583.75 278.46 C 576.47 280.41 572.15 287.91 574.11 295.19 C 575.98 302.14 582.89 306.39 589.85 305.06 L 590.84 304.84 L 735.87 265.87 C 743.15 263.91 747.47 256.42 745.52 249.13 Z" fill="url(#linearGradient-2)" fill-rule="nonzero" group-id="2" id="路径-10备份" node-id="31" stroke="none" target-height="68.46661" target-width="175.32166" target-x="572.15106" target-y="237.9281"></path></g><g node-id="77"><path d="M 96.50 440.12 C 106.53 438.20 113.47 437.81 117.33 438.94 C 125.81 441.43 139.21 455.02 156.82 454.09 C 174.43 453.17 213.93 437.63 233.86 417.80 C 253.79 397.97 263.00 379.01 276.63 364.45 C 290.26 349.90 318.57 339.54 333.91 324.18 C 349.26 308.81 352.22 299.96 348.58 295.86 C 344.94 291.77 338.83 292.68 333.82 294.79 C 328.81 296.90 468.56 213.43 479.45 202.18 C 490.34 190.94 494.71 182.20 494.28 173.92 C 493.84 165.65 478.34 161.05 461.78 164.62 C 445.22 168.19 268.07 213.26 238.97 214.79 C 209.86 216.31 90.58 281.25 71.01 310.95 C 51.45 340.65 53.56 388.09 62.98 405.89 C 66.80 413.11 70.46 420.60 73.95 428.39 L 73.95 428.39 C 77.84 437.06 87.17 441.91 96.50 440.12 Z" fill="url(#radialGradient-3)" fill-rule="evenodd" group-id="3" id="路径-46" node-id="32" stroke="none" target-height="293.96216" target-width="443.26175" target-x="51.44829" target-y="161.05428"></path></g><path d="M 334.04 294.49 L 348.32 285.65 C 345.72 282.44 341.12 281.71 337.65 283.94 L 254.86 337.24 L 254.86 337.24 L 341.45 292.99 C 340.13 293.08 338.94 293.23 337.87 293.45 C 336.80 293.66 335.52 294.01 334.04 294.49 Z" fill="#ffb627" fill-rule="evenodd" id="路径-47" node-id="33" stroke="none" target-height="55.532654" target-width="93.45364" target-x="254.86346" target-y="281.70615"></path><path d="M 480.91 164.15 C 478.61 177.44 471.62 187.07 459.94 193.02 C 448.25 198.98 417.12 217.80 366.55 249.48 C 431.45 217.15 468.05 198.26 476.35 192.81 C 488.80 184.64 488.05 172.50 488.05 168.95 C 488.05 166.58 485.67 164.99 480.91 164.15 Z" fill="#ffc24a" fill-rule="evenodd" id="路径-48" node-id="34" stroke="none" target-height="85.324875" target-width="122.25049" target-x="366.54886" target-y="164.1524"></path><path d="M 273.16 337.24 C 242.20 366.81 241.54 382.29 218.61 391.95 C 195.68 401.61 151.63 403.95 164.59 386.67 C 177.55 369.39 238.55 331.09 256.81 321.29 C 278.82 309.47 329.80 288.46 341.45 285.50 C 343.82 284.90 333.19 291.43 309.54 305.09 C 305.93 306.81 293.80 317.53 273.16 337.24 Z" fill="#ffb627" fill-rule="evenodd" id="路径-53" node-id="35" stroke="none" target-height="119.05899" target-width="192.19266" target-x="151.62848" target-y="284.89554"></path></svg>